<?xml version="1.0" encoding="utf-8"?>
<!-- Generator: Adobe Illustrator 24.0.3, SVG Export Plug-In . SVG Version: 6.00 Build 0)  -->
<svg version="1.1" id="Layer_1" xmlns="http://www.w3.org/2000/svg" xmlns:xlink="http://www.w3.org/1999/xlink" x="0px" y="0px"
	 viewBox="0 0 200 69.2" style="enable-background:new 0 0 200 69.2;" xml:space="preserve">
<g>
	<path d="M70.6,22c1-9.4,6.8-19.5,12.2-21.4c0.7-0.2,1.2-0.3,1.5-0.3c0.9-0.2,2.2,0.8,2.7,1.9c0.3,0.2,0.7,0.7,0.7,0.7
		c0,0.2,0.2-0.2,0.3-0.5c0.7-0.7,1.5-0.7,1.7,0.2C90,2.8,89.7,4,89.3,5.2c-2.2,9.7-1.4,16.6,2.5,16.6c1.7,0,5.1-2.7,9.5-7.8
		c2-2.6,3.1-3.2,3.1-2.4c0,0.3-6.3,7.8-7.8,9c-2,1.7-3.2,2.4-4.9,2.4c-1.2,0-1.9-0.2-2.4-0.7c-2.4-1.7-2.9-3.4-2.9-8.1v-3.6
		l-1.2,2.5c-3.7,8.3-9,15-12.1,15C71.3,28.1,70.1,25.6,70.6,22z M74.4,26.1c2.2-1.2,5.9-6.1,8.7-11.6c2.2-4.4,4.2-9.9,4.1-10.5
		c-0.2-0.3-0.5-0.8-0.8-1.2c-1.4-1.2-2.9-0.7-5.3,1.4c-3.7,3.6-6.6,9.2-8,15.3c-0.5,2.7-0.5,5.9,0,6.6
		C73.4,26.6,73.4,26.6,74.4,26.1z"/>
	<path d="M89.2,62.8c6.5-7.6,10.2-12.6,14.8-19.5c3.2-4.9,3.6-5.6,5.8-14.3c0.9-3.1,4.1-19,3.9-19l-1.4,2c-4.2,6.5-7.8,9-9.9,7.1
		c-1.4-1.4-0.5-4.8,2.2-9.5c2.7-4.6,5.9-8,8.8-9.2c1.7-0.7,3.1-0.5,3.9,0.5c0.9,0.8,0.9,1.5,0.3,2.4c-0.3,0.7-1,2.9-1.4,5.1l-2,9.5
		c-1.4,6.8-2.4,11-3.1,13.8c-0.2,0.3,0.9-0.9,1.9-2.5c5.3-7.5,14.4-18,15.8-18c1,0,0.7,0.8-1.4,2.9c-2.4,2.5-4.9,5.4-7.8,9
		c-2.7,3.6-10.4,15-10.9,16.7c-2.4,6.6-5.6,12.7-8.8,17.5c-5.8,8.3-12.9,14.1-14.3,11.4C85.4,67.5,86.3,66,89.2,62.8z M90.2,65.7
		c4.1-3.2,8.3-8.8,11.7-15.1l1.5-3.2c0,0-1.5,2-3.4,4.4c-1.7,2.4-5.1,6.5-7.3,9.2c-4.8,5.4-5.6,6.5-5.1,6.5
		C87.8,67.4,89,66.7,90.2,65.7z M111.3,10.6c1.7-2.4,4.1-6.8,4.6-8.2c0-0.3,0.2-0.8,0.3-1c0.2-0.5-0.7-0.5-2.2,0.3
		c-2.9,1.2-6.5,5.6-9.2,10.9c-1.2,2.6-1.7,5.3-0.9,5.3C105.5,17.9,108.4,15,111.3,10.6z"/>
</g>
</svg>
