<?xml version="1.0" encoding="utf-8"?>
<!-- Generator: Adobe Illustrator 24.0.3, SVG Export Plug-In . SVG Version: 6.00 Build 0)  -->
<svg version="1.1" id="Layer_1" xmlns="http://www.w3.org/2000/svg" xmlns:xlink="http://www.w3.org/1999/xlink" x="0px" y="0px"
	 viewBox="0 0 200 69.2" style="enable-background:new 0 0 200 69.2;" xml:space="preserve">
<style type="text/css">
	.st0{fill:#FFFFFF;}
</style>
<g>
	<path class="st0" d="M200,69.4L200,69.4c0,0-51.5,1.7-100,1.7c-48.5,0-100-1.7-100-1.7l0,0l0,0V-0.2l0,0c0,0,51.5-1.7,100-1.7
		c48.5,0,100,1.7,100,1.7l0,0V69.4L200,69.4z"/>
	<path d="M198.1,67.6L198.1,67.6c0,0-50.5,1.6-98.1,1.6c-47.6,0-98.1-1.6-98.1-1.6l0,0l0,0V1.6l0,0C1.8,1.6,52.4,0,100,0
		c47.6,0,98.1,1.6,98.1,1.6l0,0V67.6L198.1,67.6z"/>
	<path class="st0" d="M12.8,47.7c26.7-0.6,56.6-1.8,87.2-1.8c30.6,0,60.4,1.2,87.2,1.8v0.7C160.4,49,130.6,50,100,50
		c-30.6,0-60.4-0.9-87.2-1.6V47.7z"/>
	<rect x="22.2" y="18.4" class="st0" width="7.6" height="20.3"/>
	<polyline class="st0" points="37.8,31.1 53.8,18.4 43.7,18.4 30.1,29.3 41.5,38.7 52.9,38.7 35.7,24.9 	"/>
	<polygon class="st0" points="164.3,29.2 152.6,18.4 162.3,18.4 171.9,27.6 171.9,38.7 164.3,38.7 	"/>
	<polygon class="st0" points="168.8,24.3 175.2,18.4 184.1,18.4 177.8,24.3 	"/>
	<path class="st0" d="M76.3,30.5v-4.1H65.2v-3.8c0.9-0.1,1.3-0.1,1.9-0.2c1.2-0.1,2.8-0.1,4.1-0.1c2.5,0,5.3,0.1,7.4,0.4
		c1.5,0.2,2.4,0.3,4.2,0.7v-4.5c-1.8-0.3-2.9-0.4-4.3-0.6c-2.3-0.2-5.4-0.4-7.7-0.4c-2.3,0-5.6,0.1-7.9,0.3c-1.8,0.1-3,0.3-5.3,0.6
		v19.5c1.9,0.3,2.9,0.5,4.9,0.6c2.7,0.2,5.3,0.3,8.6,0.3c3.1,0,5.4-0.1,7.6-0.3c1.7-0.2,2.6-0.3,4.2-0.7v-4.5
		c-3.7,0.8-7.1,1.1-11.7,1.1c-2.4,0-3.7-0.1-6-0.3v-4.2H76.3z"/>
	<path class="st0" d="M96.2,38.7V22.7c2.2-0.6,3.9-0.9,5.9-0.9c4.6,0,7.6,1.5,7.6,3.8c0,2.2-2.6,3.7-6.3,3.7c-1.6,0-3.2-0.3-4.6-0.8
		l-1.1,2l9.3,8h11.6l-9.6-6.5c0.2,0,0.3,0,0.4,0c4.9,0,8.3-2.7,8.3-6.5c0-2.6-1.6-4.8-4.4-6.1c-2.3-1.1-6.2-1.7-11-1.7
		c-2.8,0-5.7,0.2-8.6,0.6c-2,0.3-3.3,0.6-5.1,1.1v19.1H96.2z"/>
	<path class="st0" d="M131.1,38.7V22.7c2.2-0.6,3.9-0.9,5.9-0.9c4.6,0,7.6,1.5,7.6,3.8c0,2.2-2.6,3.7-6.3,3.7
		c-1.6,0-3.2-0.3-4.6-0.8l-1.1,2l9.3,8h11.6l-9.6-6.5c0.2,0,0.3,0,0.4,0c4.9,0,8.3-2.7,8.3-6.5c0-2.6-1.6-4.8-4.4-6.1
		c-2.3-1.1-6.2-1.7-11-1.7c-2.8,0-5.7,0.2-8.6,0.6c-2,0.3-3.3,0.6-5.1,1.1v19.1H131.1z"/>
</g>
</svg>
