<?xml version="1.0" encoding="utf-8"?>
<!-- Generator: Adobe Illustrator 24.0.3, SVG Export Plug-In . SVG Version: 6.00 Build 0)  -->
<svg version="1.1" id="Layer_1" xmlns="http://www.w3.org/2000/svg" xmlns:xlink="http://www.w3.org/1999/xlink" x="0px" y="0px"
	 viewBox="0 0 200 69.2" style="enable-background:new 0 0 200 69.2;" xml:space="preserve">
<path d="M178.9,58.2c-0.2,0.4-0.7,0.6-1.1,0.6h-9.2c-0.4,0-0.6-0.3-0.4-0.6l10.7-18c0.2-0.3,0.2-0.9,0-1.3l-10.2-17
	c-0.2-0.3,0-0.6,0.4-0.6h8.8c0.4,0,0.9,0.3,1.1,0.6l9.9,17c0.2,0.4,0.2,0.9,0,1.3L178.9,58.2z"/>
<path d="M94.5,11.1c0-0.4,0.3-0.7,0.7-0.7h7.7c0.4,0,0.7,0.3,0.7,0.7v6.2c0,0.4-0.3,0.7-0.7,0.7h-7.7c-0.4,0-0.7-0.3-0.7-0.7V11.1z"
	/>
<path d="M12.1,20.7c0-0.4-0.3-0.7-0.7-0.7H0.7C0.3,20,0,19.7,0,19.3v-6.6C0,12.3,0.3,12,0.7,12h31.7c0.4,0,0.7,0.3,0.7,0.7v6.6
	c0,0.4-0.3,0.7-0.7,0.7H21.6c-0.4,0-0.7,0.3-0.7,0.7v29.9c0,0.4-0.3,0.7-0.7,0.7h-7.4c-0.4,0-0.7-0.3-0.7-0.7
	C12.1,50.6,12.1,20.7,12.1,20.7z"/>
<path d="M51.4,36.4L51.4,36.4c0-4.5-3.2-8.4-8-8.4c-5,0-7.9,3.8-7.9,8.2v0.1c0,4.4,3.2,8.3,8,8.3C48.5,44.6,51.4,40.8,51.4,36.4
	 M26.9,36.4L26.9,36.4c0-8.7,7.1-15.7,16.6-15.7C53,20.7,60,27.6,60,36.2v0.1c0,8.6-7.1,15.6-16.6,15.6C33.9,51.9,26.9,45,26.9,36.4
	"/>
<path d="M94.7,21.9c0-0.4,0.3-0.7,0.7-0.7h7.3c0.4,0,0.7,0.3,0.7,0.7v28.7c0,0.4-0.3,0.7-0.7,0.7h-7.3c-0.4,0-0.7-0.3-0.7-0.7V21.9z
	"/>
<path d="M129.9,25.1l-2.4,4.3c-0.4,0.7-1.3,0.2-1.3,0.2c-2.7-1.4-5.4-2.3-7.4-2.3c-2.1,0-3.2,0.9-3.2,2.1v0.1c0,1.7,2.9,2.5,6.2,3.6
	c4.3,1.4,9.2,3.4,9.2,8.9v0.1c0,6.7-5.1,9.7-11.7,9.7c-4,0-8.4-1.2-12.3-3.9c-0.9-0.6-0.3-1.5-0.3-1.5l2.6-4c0,0,0.5-0.8,1.3-0.2
	c3.1,2,6.2,3.1,8.9,3.1c2.5,0,3.7-0.9,3.7-2.2V43c0-1.8-3-2.5-6.3-3.5c-4.3-1.2-9.1-3.2-9.1-9v-0.1c0-6.1,5-9.5,11.2-9.5
	c3.6,0,7.4,1.1,10.6,3C130.4,24.3,129.9,25.1,129.9,25.1"/>
<path d="M134.7,21.9c0-0.4,0.3-0.7,0.7-0.7h7.3c0.4,0,0.7,0.3,0.7,0.7v28.7c0,0.4-0.3,0.7-0.7,0.7h-7.3c-0.4,0-0.7-0.3-0.7-0.7V21.9
	z M134.5,11.1c0-0.4,0.3-0.7,0.7-0.7h7.7c0.4,0,0.7,0.3,0.7,0.7v6.2c0,0.4-0.3,0.7-0.7,0.7h-7.7c-0.4,0-0.7-0.3-0.7-0.7V11.1z"/>
<path d="M190.4,36.5c0.2,0.3,0.5,0.3,0.7,0l8.8-14.5c0.2-0.3,0-0.6-0.3-0.6h-9.1c-0.4,0-0.9,0.3-1,0.6l-3.5,5.7
	c-0.2,0.3-0.2,0.8,0,1.2L190.4,36.5z"/>
<path d="M71.4,35.2v15.4c0,0.4-0.3,0.7-0.7,0.7h-7.3c-0.4,0-0.7-0.3-0.7-0.7V21.9c0-0.4,0.3-0.7,0.7-0.7h7.3c0.4,0,0.7,0.3,0.7,0.7
	v2.9c0,0.4,0.2,0.5,0.4,0.2c0,0,0.2-0.2,0.3-0.4l0.1-0.1c1.9-2.1,4.3-3.8,8.1-3.8c6.6,0,10.4,4.3,10.4,11.1v8.8v10
	c0,0.4-0.3,0.7-0.7,0.7h-7.3c-0.4,0-0.7-0.3-0.7-0.7v-10v-6.1c0-4-1.9-6.1-5.2-6.1c-3.3,0-5.4,2.1-5.4,6.1
	C71.4,34.5,71.4,35.2,71.4,35.2z"/>
<path d="M165.2,50.4c-1.7,0.9-3.6,1.4-6.2,1.4c-5.3,0-8.9-2.1-8.9-9v-5.3v-8.2c0-0.4-0.3-0.7-0.7-0.7h-2.3c-0.4,0-0.7-0.3-0.7-0.7
	V22c0-0.4,0.3-0.7,0.7-0.7h2.3c0.4,0,0.7-0.3,0.7-0.7v-6.4c0-0.4,0.3-0.7,0.7-0.7h7.3c0.4,0,0.7,0.3,0.7,0.7v6.4
	c0,0.4,0.3,0.7,0.7,0.7h5.8c0.4,0,0.7,0.3,0.7,0.7v5.9c0,0.4-0.3,0.7-0.7,0.7h-5.8c-0.4,0-0.7,0.3-0.7,0.7v6.8v5.3
	c0,2,0.9,2.9,2.8,2.9c1.3,0,2.5-0.3,3.5-0.7c0,0,0.8-0.4,0.8,0.3v5.5C165.9,49.4,165.9,50,165.2,50.4"/>
</svg>
