<?xml version="1.0" encoding="utf-8"?>
<!-- Generator: Adobe Illustrator 24.0.3, SVG Export Plug-In . SVG Version: 6.00 Build 0)  -->
<svg version="1.1" id="Layer_1" xmlns="http://www.w3.org/2000/svg" xmlns:xlink="http://www.w3.org/1999/xlink" x="0px" y="0px"
	 viewBox="0 0 314 86" style="enable-background:new 0 0 314 86;" xml:space="preserve">
<text transform="matrix(1 0 0 1 433.8335 -37.2085)" style="font-family:'FuturaPT-Demi'; font-size:12px;">EOIN FEELY STUDIOS</text>
<g>
	<g>
		<path d="M49.7,32.2H37.9v7.3h11.3v5.5H37.9v8.9h11.7v5.5H31.6V26.7h18.1V32.2z"/>
		<path d="M77.5,32.2h-11v7.3h10.3v5.5H66.5v14.4h-6.4V26.7h17.3V32.2z"/>
		<path d="M117.7,34.1c-1.9-2.5-4.2-2.8-5.3-2.8c-3.4,0-4.5,2.2-4.5,3.8c0,0.8,0.2,1.5,1,2.2c0.8,0.7,1.9,1.1,3.9,1.9
			c2.5,0.9,4.9,1.8,6.6,3.3c1.5,1.3,2.8,3.5,2.8,6.8c0,6.4-4.6,10.7-11.3,10.7c-6,0-9.5-3.7-11.2-6.2l4.2-4c1.6,3.2,4.6,4.4,6.8,4.4
			c2.9,0,5-1.8,5-4.5c0-1.2-0.4-2.1-1.3-2.9c-1.2-1.1-3.2-1.8-5-2.4c-1.7-0.6-3.8-1.4-5.4-2.8c-1.1-0.9-2.6-2.7-2.6-6.1
			c0-4.8,3.2-9.6,10.5-9.6c2.1,0,5.9,0.4,9.2,3.8L117.7,34.1z"/>
		<path d="M142.2,32.2v27.1h-6.4V32.2h-7.3v-5.5h21v5.5H142.2z"/>
		<path d="M163.7,26.7v20.5c0,2.5,0.8,4,1.6,4.8c0.9,1.1,2.6,2.3,5.2,2.3c2.5,0,4.3-1.1,5.2-2.3c0.7-0.8,1.6-2.3,1.6-4.8V26.7h6.4
			v20c0,3.1-0.5,6.2-2.4,8.7c-2.3,3.1-6.5,4.7-10.7,4.7c-4.2,0-8.3-1.6-10.7-4.7c-2-2.5-2.4-5.6-2.4-8.7v-20H163.7z"/>
		<path d="M203.4,26.7c4.5,0,8.5,0.5,12.1,3.2c4,3,6.3,7.7,6.3,13.2c0,5.4-2.3,10.1-6.6,13.2c-3.8,2.7-7.4,3.1-11.9,3.1h-8.4V26.7
			H203.4z M201.3,53.8h2c1.6,0,5.1-0.1,8-2.2c2.6-1.9,4.1-5.2,4.1-8.7c0-3.4-1.4-6.8-4-8.7c-2.6-2-5.9-2.2-8-2.2h-2V53.8z"/>
		<path d="M237.9,26.7v32.6h-6.4V26.7H237.9z"/>
		<path d="M282.4,43c0,9.9-7.1,17-17.4,17c-10.3,0-17.4-7.1-17.4-17S254.7,26,265,26C275.3,26,282.4,33.1,282.4,43z M275.9,43
			c0-6.6-4.5-11.3-10.9-11.3c-6.4,0-10.9,4.7-10.9,11.3s4.5,11.2,10.9,11.2C271.4,54.3,275.9,49.6,275.9,43z"/>
	</g>
	<g>
		<path d="M314,85.8H0V0.2h314V85.8z M8.2,77.7h297.7V8.3H8.2V77.7z"/>
	</g>
</g>
</svg>
