<svg id="Group_9" data-name="Group 9" xmlns="http://www.w3.org/2000/svg" width="15" height="15" viewBox="0 0 15 15">
  <path id="Path_1" data-name="Path 1" d="M-393.5,51.351c2,0,2.24.008,3.031.044a4.151,4.151,0,0,1,1.393.258,2.326,2.326,0,0,1,.862.561,2.326,2.326,0,0,1,.561.862,4.152,4.152,0,0,1,.258,1.393c.036.791.044,1.028.044,3.031s-.008,2.24-.044,3.031a4.152,4.152,0,0,1-.258,1.393,2.326,2.326,0,0,1-.561.862,2.326,2.326,0,0,1-.862.561,4.151,4.151,0,0,1-1.393.258c-.791.036-1.028.044-3.031.044s-2.24-.008-3.031-.044a4.151,4.151,0,0,1-1.393-.258,2.326,2.326,0,0,1-.862-.561,2.326,2.326,0,0,1-.561-.862,4.151,4.151,0,0,1-.258-1.393c-.036-.791-.044-1.028-.044-3.031s.008-2.24.044-3.031a4.151,4.151,0,0,1,.258-1.393,2.326,2.326,0,0,1,.561-.862,2.326,2.326,0,0,1,.862-.561,4.152,4.152,0,0,1,1.393-.258c.791-.036,1.028-.044,3.031-.044m0-1.351c-2.037,0-2.292.009-3.092.045a5.506,5.506,0,0,0-1.821.349,3.676,3.676,0,0,0-1.328.865,3.676,3.676,0,0,0-.865,1.328,5.505,5.505,0,0,0-.349,1.821c-.036.8-.045,1.055-.045,3.092s.009,2.292.045,3.092a5.505,5.505,0,0,0,.349,1.821,3.676,3.676,0,0,0,.865,1.328,3.676,3.676,0,0,0,1.328.865,5.506,5.506,0,0,0,1.821.349c.8.037,1.055.045,3.092.045s2.292-.009,3.092-.045a5.505,5.505,0,0,0,1.82-.349,3.676,3.676,0,0,0,1.328-.865,3.677,3.677,0,0,0,.865-1.328,5.507,5.507,0,0,0,.349-1.821c.036-.8.045-1.055.045-3.092s-.009-2.292-.045-3.092a5.507,5.507,0,0,0-.349-1.821,3.677,3.677,0,0,0-.865-1.328,3.676,3.676,0,0,0-1.328-.865,5.506,5.506,0,0,0-1.82-.349c-.8-.036-1.055-.045-3.092-.045Z" transform="translate(401 -50)"/>
  <path id="Path_2" data-name="Path 2" d="M-372.825,74.324a3.851,3.851,0,0,0-3.851,3.851,3.851,3.851,0,0,0,3.851,3.851,3.851,3.851,0,0,0,3.851-3.851A3.851,3.851,0,0,0-372.825,74.324Zm0,6.351a2.5,2.5,0,0,1-2.5-2.5,2.5,2.5,0,0,1,2.5-2.5,2.5,2.5,0,0,1,2.5,2.5A2.5,2.5,0,0,1-372.825,80.675Z" transform="translate(380.325 -70.675)"/>
  <circle id="Ellipse_1" data-name="Ellipse 1" cx="0.9" cy="0.9" r="0.9" transform="translate(10.604 2.596)"/>
</svg>
