<svg id="Group_10" data-name="Group 10" xmlns="http://www.w3.org/2000/svg" width="15" height="14.975" viewBox="0 0 15 14.975">
  <rect id="Rectangle_8" data-name="Rectangle 8" width="3.112" height="10.002" transform="translate(0.247 4.973)"/>
  <path id="Path_4" data-name="Path 4" d="M62.739,64.6a1.8,1.8,0,1,1,1.8-1.8A1.8,1.8,0,0,1,62.739,64.6Z" transform="translate(-60.935 -61)"/>
  <path id="Path_5" data-name="Path 5" d="M91.611,87.219A3.268,3.268,0,0,1,94.553,85.6c3.145,0,3.726,2.071,3.726,4.766v5.486H95.174V90.992c0-1.161-.023-2.652-1.616-2.652-1.617,0-1.864,1.263-1.864,2.567v4.949H88.589v-10h2.979v1.366h.043" transform="translate(-83.28 -80.88)"/>
</svg>
