<svg xmlns="http://www.w3.org/2000/svg" width="15" height="12.191" viewBox="0 0 15 12.191">
  <path id="Path_15" data-name="Path 15" d="M-174.283,73.181a8.7,8.7,0,0,0,8.756-8.756q0-.2-.009-.4A6.26,6.26,0,0,0-164,62.433a6.144,6.144,0,0,1-1.767.484,3.089,3.089,0,0,0,1.353-1.7,6.171,6.171,0,0,1-1.954.747,3.075,3.075,0,0,0-2.246-.972,3.078,3.078,0,0,0-3.078,3.077,3.071,3.071,0,0,0,.08.7,8.737,8.737,0,0,1-6.343-3.215,3.067,3.067,0,0,0-.417,1.547A3.075,3.075,0,0,0-177,65.662a3.054,3.054,0,0,1-1.394-.385c0,.013,0,.026,0,.039a3.079,3.079,0,0,0,2.469,3.017,3.088,3.088,0,0,1-.811.108,3.064,3.064,0,0,1-.578-.055,3.081,3.081,0,0,0,2.875,2.137,6.176,6.176,0,0,1-3.822,1.317A6.259,6.259,0,0,1-179,71.8a8.713,8.713,0,0,0,4.717,1.382" transform="translate(179 -60.99)"/>
</svg>
